<svg width="15" height="15" viewBox="0 0 15 15" fill="none" xmlns="http://www.w3.org/2000/svg">
<path d="M7.58342 15C5.46656 15 3.67326 14.2739 2.20352 12.8218C0.734508 11.3689 0 9.59607 0 7.50321C0 5.41036 0.734508 3.63679 2.20352 2.1825C3.67254 0.728215 5.46584 0.000714286 7.58342 0C8.87115 0 10.0769 0.3025 11.2007 0.9075C12.3238 1.5125 13.2291 2.35714 13.9167 3.44143V0H15V5.60357H9.3341V4.53214H13.3425C12.7777 3.46429 11.984 2.62036 10.9613 2.00036C9.93861 1.38036 8.81265 1.07071 7.58342 1.07143C5.77784 1.07143 4.2431 1.69643 2.9792 2.94643C1.7153 4.19643 1.08335 5.71429 1.08335 7.5C1.08335 9.28571 1.7153 10.8036 2.9792 12.0536C4.2431 13.3036 5.77784 13.9286 7.58342 13.9286C8.97371 13.9286 10.2286 13.5357 11.348 12.75C12.4675 11.9643 13.2529 10.9286 13.7043 9.64286H14.8548C14.3767 11.2471 13.4689 12.5411 12.1313 13.5246C10.7937 14.5082 9.27777 15 7.58342 15Z" fill="white"/>
</svg>
