<?xml version="1.0" encoding="UTF-8"?>
<svg id="Layer_1" data-name="Layer 1" xmlns="http://www.w3.org/2000/svg" viewBox="0 0 1080 1080">
  <defs>
    <style>
      .cls-1 {
        fill: #fbb03b;
      }

      .cls-1, .cls-2 {
        stroke-width: 0px;
      }

      .cls-2 {
        fill: #fff;
      }
    </style>
  </defs>
  <g>
    <path class="cls-2" d="M203.86,622.21c4.18,1,8.26,1.82,12.25,2.44,4,.64,7.29,1.07,9.88,1.29,2.46.4,4.87.71,7.24.96,2.37.24,4.78.57,7.24.95,4.29.54,8.4,1.2,12.33,1.98,3.93.79,7.63,1.98,11.11,3.57,3.47,1.59,6.61,3.74,9.42,6.44,2.81,2.71,5.32,6.24,7.52,10.58,1.47,2.91,2.34,5.9,2.61,8.97.27,3.08.16,6.16-.33,9.23-1,5.84-3.2,11.38-6.61,16.6-3.4,5.22-7.45,10.08-12.12,14.58-4.68,4.5-9.7,8.57-15.06,12.23-5.36,3.65-10.49,6.82-15.41,9.53-2.31,1.26-5.76,3.01-10.33,5.22-4.58,2.22-9.38,4.39-14.42,6.5-5.04,2.11-9.91,4.01-14.6,5.71-4.7,1.7-8.4,2.67-11.11,2.91-2.41.21-4.81,0-7.21-.62-2.4-.62-4.68-1.59-6.84-2.92-2.16-1.32-4.12-2.89-5.87-4.71-1.75-1.82-3.24-3.73-4.47-5.74-.53-.87-1-1.85-1.4-2.95-.4-1.1-.6-2.1-.61-3.01s.27-1.69.82-2.34c.54-.65,1.57-1.05,3.08-1.18,1.51.01,3.14.48,4.89,1.38,1.74.91,3.19,1.84,4.33,2.8,1.04-.24,2-.48,2.89-.7.89-.23,1.77-.54,2.65-.91,5.12-1.97,10.76-4.21,16.9-6.71,6.14-2.5,12.37-5.36,18.67-8.56,6.3-3.21,12.47-6.74,18.49-10.6,6.03-3.86,11.41-8.08,16.16-12.66,4.74-4.58,8.63-9.5,11.65-14.76,3.02-5.27,4.73-10.87,5.11-16.81l-.2-2.25c-.31-.12-.51-.18-.58-.18-.08,0-.27-.05-.59-.18-.45.04-.76,0-.92-.15-.15.01-.3,0-.46-.08-.16-.06-.31-.08-.46-.07-1.23-.19-2.22-.33-2.99-.42-4.45-.67-8.9-1.26-13.33-1.78-4.44-.52-8.88-1.11-13.33-1.79-4.92-.78-9.91-1.62-14.99-2.55-5.08-.92-10.04-2.18-14.87-3.8-4.84-1.62-9.49-3.63-13.94-6.05-4.45-2.41-8.57-5.34-12.36-8.8-3.8-3.6-7.02-7.52-9.67-11.75-2.64-4.24-4.35-8.97-5.11-14.21-.99-6.12-.7-12.21.89-18.25,1.72-6.36,4.34-12.27,7.87-17.73,3.53-5.46,7.51-10.58,11.94-15.36,4.84-5.27,11.11-10.97,18.83-17.1,7.71-6.13,15.88-11.88,24.49-17.25,8.62-5.38,17.3-9.96,26.06-13.76,8.75-3.8,16.51-5.99,23.27-6.58,2.85-.25,5.83.02,8.93.8,3.1.79,6,2.01,8.73,3.66,2.72,1.66,5.02,3.73,6.9,6.21,1.88,2.49,3.03,5.22,3.45,8.21.29,1.65.3,3.42.01,5.33-.28,1.93-.5,3.73-.66,5.4-1.35,8.75-3.66,17.44-6.91,26.05-3.26,8.61-7.04,16.82-11.35,24.62-.79,1.43-1.71,2.99-2.78,4.67-1.06,1.69-2.29,3.31-3.66,4.86-1.38,1.56-2.85,2.9-4.42,4.02-1.57,1.12-3.25,1.77-5.06,1.92-2.11.19-4.18-.16-6.22-1.05-2.04-.87-4.01-2.06-5.88-3.57-1.87-1.5-3.53-3.17-4.98-5.01-1.45-1.84-2.56-3.64-3.32-5.39-.39-.87-.66-1.83-.82-2.88-.17-1.04.09-1.97.77-2.8.55-.65,1.35-1.03,2.4-1.12,1.95-.17,3.88.19,5.77,1.08,2.8-2.67,5.5-6.28,8.14-10.82,2.63-4.55,5-9.41,7.12-14.59,2.11-5.19,3.98-10.31,5.58-15.37,1.6-5.06,2.77-9.36,3.52-12.92-5.6,1.71-12.01,4.27-19.2,7.7-7.19,3.44-14.52,7.53-21.98,12.27-7.46,4.74-14.68,9.96-21.68,15.64-6.99,5.69-13.22,11.65-18.65,17.89-5.44,6.23-9.69,12.59-12.75,19.06-3.06,6.48-4.33,12.8-3.79,18.96l.18,2.03c.07.76.21,1.5.42,2.24.04.45.11.86.22,1.23.11.37.18.77.22,1.23.16.14.26.36.28.66l.26.44c.03.3.08.48.16.55.08.07.13.25.16.55.5.56.77.99.8,1.29.15-.01.23.02.23.09,0,.08.08.1.23.09.16.14.25.25.26.32,0,.08.09.18.26.32,2.26,1.62,5.23,3.06,8.9,4.33,3.67,1.27,7.58,2.32,11.75,3.17Z"/>
    <path class="cls-2" d="M363.3,588.22c.37-.95,1.16-1.47,2.36-1.57,1.35-.12,3.05.23,5.09,1.03,2.04.81,4.04,1.96,5.99,3.45,1.95,1.49,3.61,3.24,5,5.24,1.39,2,2.1,4.13,2.15,6.4-.01,3.34-.33,6.58-.96,9.74-.63,3.16-1.41,6.3-2.35,9.4-.94,3.12-1.92,6.23-2.93,9.34-1.02,3.12-1.84,6.3-2.46,9.54-.85,4.16-1.41,8.15-1.68,11.96-.27,3.81-.43,7.23-.46,10.26-.04,3.03.06,5.53.31,7.47.25,1.95.46,3.06.64,3.35.03.3.26.43.72.39.9-.08,2.08-1.24,3.55-3.5,1.47-2.24,3.1-5.15,4.91-8.72,1.8-3.57,3.69-7.52,5.66-11.85,1.96-4.34,3.86-8.59,5.69-12.77,1.83-4.17,3.46-8.03,4.89-11.56,1.43-3.53,2.52-6.24,3.26-8.12.59-1.87,1.79-2.88,3.6-3.04,1.2-.1,2.39.09,3.57.59,1.18.51,2.18,1.1,3,1.78.48.26.24,2.37-.69,6.31-.94,3.94-2.37,8.77-4.29,14.46-1.93,5.7-4.18,11.88-6.78,18.54-2.6,6.67-5.43,12.82-8.49,18.46-3.06,5.65-6.24,10.43-9.53,14.35-3.29,3.93-6.51,6.03-9.67,6.3-.75.07-1.36.04-1.82-.07-3.39-.62-6.37-2.17-8.93-4.67-2.57-2.5-4.68-5.45-6.35-8.87-1.66-3.42-2.96-6.97-3.89-10.68-.93-3.7-1.53-7.06-1.79-10.07-.14.16-.62,1.23-1.42,3.19-.82,1.97-1.93,4.34-3.35,7.11-1.42,2.78-3.01,5.75-4.78,8.93-1.77,3.19-3.7,6.16-5.81,8.92-2.11,2.75-4.25,5.1-6.43,7.04-2.18,1.93-4.39,2.99-6.65,3.19-1.05.1-2.83-.31-5.33-1.23-2.5-.91-5.16-2.24-7.96-3.96-2.8-1.72-5.55-3.79-8.27-6.2-2.71-2.41-4.88-5.14-6.51-8.18-2.14-3.75-3.51-7.68-4.1-11.79-.59-4.12-.64-8.27-.18-12.48.46-4.21,1.23-8.36,2.31-12.47,1.08-4.11,2.29-8.04,3.63-11.79,1.35-3.6,2.77-7.21,4.27-10.83,1.5-3.62,3.08-7.24,4.73-10.86l6.1-13.26c.47-1.55,1.45-2.4,2.96-2.54,1.36-.12,2.78.18,4.28.87,1.5.7,2.98,1.59,4.44,2.68,1.46,1.08,2.77,2.26,3.94,3.52,1.17,1.26,2.1,2.39,2.8,3.39.37.73.87,1.78,1.53,3.16.65,1.38.79,2.54.42,3.48-.37.94-1.36,3.11-2.95,6.51-1.59,3.39-3.36,7.41-5.3,12.05s-3.88,9.62-5.84,14.94c-1.96,5.32-3.45,10.34-4.47,15.05-1.03,4.71-1.38,8.83-1.07,12.36.31,3.53,1.65,5.8,4,6.81.16.14.4.19.7.17,1.65-.15,3.85-2.28,6.6-6.38,2.74-4.11,5.81-9.26,9.2-15.46,3.39-6.2,6.84-12.98,10.37-20.33,3.52-7.35,6.73-14.34,9.63-20.95,2.9-6.62,5.38-12.47,7.43-17.58,2.06-5.1,3.32-8.43,3.78-9.98Z"/>
    <path class="cls-2" d="M477.72,577.04c2.66.98,5.23,2.23,7.71,3.75,2.48,1.52,4.83,3.25,7.04,5.17,2.21,1.93,4.08,3.73,5.59,5.42,1.67,1.82,2.75,3.69,3.22,5.62.47,1.93.95,4.01,1.46,6.24.53,4.35.92,8.78,1.17,13.3.27,8.31-.4,16.58-2.02,24.83-1.63,8.25-4.31,16.09-8.05,23.53-1.43,2.71-3.19,5.54-5.27,8.53-2.08,2.99-4.42,5.77-6.99,8.34-2.58,2.57-5.38,4.75-8.4,6.53-3.03,1.77-6.2,2.81-9.5,3.1-.45.04-.87.04-1.25,0-.39-.05-.8-.04-1.25,0-2.28-.11-4.88-.86-7.81-2.27-2.93-1.41-5.83-3.05-8.72-4.91-2.89-1.87-5.56-3.86-8.02-6-2.46-2.13-4.37-4.04-5.73-5.74-6.74,16.34-12.64,32.91-17.67,49.71-5.04,16.8-8.67,34-10.91,51.61.02.15-.13.24-.43.27-.9.08-2.11-.31-3.62-1.16-1.52-.85-3.12-1.89-4.82-3.09-1.7-1.21-3.28-2.44-4.75-3.68-1.47-1.23-2.46-2.13-2.96-2.69-.32-.28-1.07-.97-2.23-2.08-1.16-1.11-1.69-2.05-1.61-2.81.23-6.08.57-12.13,1.02-18.15.46-6.02,1.03-12.01,1.72-17.98,3.02-24.2,7.14-48.06,12.34-71.62,5.2-23.55,10.16-47.27,14.88-71.17-.03-.29.11-.46.41-.49.9-.08,2.27.41,4.1,1.46,1.83,1.05,3.69,2.29,5.55,3.71,1.87,1.43,3.62,2.87,5.27,4.31,1.64,1.45,2.72,2.53,3.24,3.24.34.42.8.95,1.39,1.58.58.63.76,1.33.52,2.11-.85,4.17-1.69,8.37-2.53,12.6-.84,4.24-1.75,8.52-2.73,12.85,2.09-3.82,4.69-8.25,7.81-13.29,3.11-5.05,6.56-9.81,10.33-14.31,3.77-4.5,7.79-8.41,12.03-11.73,4.25-3.33,8.55-5.18,12.91-5.56,2.4-.21,4.93.1,7.58.93ZM480.97,626.96c1.37-6.79,2.19-12.99,2.45-18.62.33-4.87.14-9.63-.57-14.26-4.65,2.22-9.25,5.92-13.79,11.1-4.54,5.17-8.81,10.88-12.8,17.13-3.99,6.26-7.67,12.64-11.04,19.14-3.37,6.51-6.19,12.29-8.47,17.33,1.78,1.36,3.53,2.73,5.24,4.09,1.71,1.37,3.24,2.82,4.59,4.37.35.57.82,1.14,1.4,1.69.58.56.75,1.23.51,2-.1.62-.16,1.15-.2,1.61-.04.46-.1,1-.2,1.61,6.02-2.19,11.23-5.76,15.65-10.69,4.26-4.92,7.82-10.53,10.67-16.84,2.85-6.3,5.04-12.86,6.56-19.65Z"/>
    <path class="cls-2" d="M599,566.39c2.66.98,5.23,2.23,7.71,3.75,2.48,1.52,4.83,3.25,7.04,5.17,2.21,1.93,4.08,3.73,5.59,5.42,1.67,1.82,2.75,3.69,3.22,5.62.47,1.93.95,4.01,1.46,6.24.53,4.35.92,8.78,1.17,13.3.27,8.31-.4,16.58-2.02,24.83-1.63,8.25-4.31,16.09-8.05,23.53-1.43,2.71-3.19,5.54-5.27,8.53-2.08,2.99-4.42,5.77-6.99,8.34-2.58,2.57-5.38,4.75-8.4,6.53-3.03,1.77-6.2,2.81-9.5,3.1-.45.04-.87.04-1.25,0-.39-.05-.8-.04-1.25,0-2.28-.11-4.88-.86-7.81-2.27-2.93-1.41-5.83-3.05-8.72-4.91-2.89-1.87-5.56-3.86-8.02-6-2.46-2.13-4.37-4.04-5.73-5.74-6.74,16.34-12.64,32.91-17.67,49.71-5.04,16.8-8.68,34-10.92,51.61.01.15-.13.24-.43.27-.9.08-2.11-.31-3.62-1.16-1.52-.85-3.12-1.89-4.82-3.09-1.7-1.21-3.28-2.44-4.75-3.68-1.47-1.23-2.46-2.13-2.96-2.69-.32-.28-1.07-.97-2.23-2.08-1.16-1.11-1.69-2.05-1.61-2.81.23-6.08.57-12.13,1.02-18.15.46-6.02,1.03-12.01,1.72-17.98,3.02-24.2,7.14-48.06,12.34-71.62,5.2-23.55,10.16-47.27,14.88-71.17-.03-.29.11-.46.41-.49.9-.08,2.27.41,4.1,1.46,1.83,1.05,3.68,2.29,5.55,3.71,1.86,1.43,3.62,2.87,5.26,4.31,1.64,1.45,2.72,2.53,3.24,3.24.34.42.8.95,1.39,1.58.58.63.76,1.33.53,2.11-.85,4.17-1.69,8.37-2.53,12.6-.84,4.24-1.75,8.52-2.73,12.85,2.09-3.82,4.69-8.25,7.81-13.29,3.11-5.05,6.56-9.81,10.33-14.31,3.77-4.5,7.78-8.41,12.03-11.73s8.55-5.18,12.91-5.56c2.4-.21,4.93.1,7.58.93ZM602.25,616.31c1.37-6.79,2.19-12.99,2.45-18.62.33-4.87.14-9.63-.57-14.26-4.65,2.22-9.25,5.92-13.79,11.1-4.54,5.17-8.81,10.88-12.8,17.13-3.99,6.26-7.67,12.64-11.04,19.14-3.37,6.51-6.19,12.29-8.47,17.33,1.78,1.36,3.53,2.73,5.24,4.09,1.71,1.37,3.24,2.82,4.58,4.37.35.57.82,1.14,1.4,1.69.58.56.75,1.23.51,2-.1.62-.16,1.15-.2,1.61s-.1,1-.2,1.61c6.02-2.19,11.23-5.76,15.65-10.69,4.26-4.92,7.82-10.53,10.67-16.84,2.85-6.3,5.04-12.86,6.57-19.65Z"/>
    <path class="cls-2" d="M688.46,576.25l-.38-1.78c-3,.42-5.92,1.16-8.78,2.25-2.86,1.08-5.59,2.35-8.18,3.79-.29.18-.74.29-1.34.34-1.35.12-2.87-.32-4.55-1.31-1.67-.99-3.33-2.16-4.97-3.54-1.78-1.36-3.39-2.76-4.8-4.24-1.42-1.46-2.4-2.7-2.94-3.71-.01-.15-.34-.84-.98-2.08-.64-1.23-.59-2.03.13-2.39,2.88-1.62,5.93-3.14,9.14-4.55,3.21-1.42,6.46-2.27,9.77-2.57,4.36-.38,8.66.38,12.92,2.28,4.25,1.9,8.12,4.47,11.58,7.73,3.47,3.25,6.37,6.97,8.7,11.16,2.34,4.19,3.91,8.29,4.72,12.3.68,4.34.87,8.67.57,13.01-.3,4.35-.87,8.6-1.72,12.76-1.07,5.09-2.59,10.57-4.58,16.41-1.98,5.86-4.57,11.35-7.75,16.48-3.18,5.13-7,9.51-11.45,13.16-4.45,3.65-9.61,5.73-15.47,6.24-4.21.37-8.36-.29-12.44-1.98-4.09-1.68-7.77-3.97-11.06-6.86-3.28-2.89-6.07-6.24-8.38-10.05-2.3-3.81-3.86-7.72-4.67-11.75-.98-4.3-1.29-8.63-.91-12.98.38-4.35.98-8.68,1.81-13,.43-2,1.16-4.91,2.19-8.71,1.03-3.81,2.32-7.63,3.88-11.47,1.55-3.85,3.41-7.26,5.57-10.26,2.16-2.99,4.52-4.6,7.07-4.82,1.5-.13,3.04.15,4.62.84,1.57.7,3.1,1.63,4.56,2.78,1.47,1.16,2.82,2.37,4.07,3.62s2.29,2.38,3.14,3.36c.5.56,1.14,1.41,1.93,2.55.78,1.15,1.13,2.18,1.06,3.09-.08.77-.28,1.2-.57,1.3-.3.1-.75.18-1.34.23l-.68.06c-.15.02-.26.07-.33.15-.07.08-.18.13-.33.14-1.29.87-2.44,1.99-3.45,3.37-1.01,1.38-1.92,2.71-2.72,3.99-3.77,7.15-6.53,14.96-8.28,23.45-1.75,8.48-2.27,16.79-1.56,24.9,1.5-.13,2.99-.41,4.47-.85,1.47-.43,2.87-.93,4.19-1.5,4.2-2.19,7.95-5.5,11.27-9.97,3.32-4.45,6.19-9.33,8.6-14.61,2.41-5.29,4.32-10.72,5.72-16.29,1.41-5.58,2.37-10.58,2.89-15.02.77-5.06.77-10.21,0-15.45Z"/>
    <path class="cls-2" d="M798.35,565.24c-.9,3.56-1.66,6.99-2.28,10.3-.62,3.32-.92,6.3-.92,8.95,0,2.65.67,4.68,2.01,6.07-5.17-.3-9.63-1.05-13.37-2.23-3.14-1.24-5.9-3-8.3-5.29-2.4-2.29-3.17-5.44-2.31-9.46,1-4.17,2.14-7.53,3.43-10.07,1.29-2.53,1.79-3.79,1.49-3.76l-.21.24c-.15.01-.3.1-.43.27-4.43,4.78-9.35,11.69-14.76,20.72-5.42,9.03-10.88,20.99-16.39,35.86l-5.96,17.56c-1.31,4.05-2.5,8.17-3.57,12.35-1.07,4.19-2.24,8.53-3.51,13.04-.01-.15-.08.04-.18.58-.1.54-.35,1.17-.75,1.88-.39.72-.82,1.36-1.31,1.93-.48.57-1.02.88-1.62.93-1.05.1-2.29-.25-3.73-1.04-1.43-.78-2.88-1.75-4.34-2.91-1.47-1.15-2.82-2.32-4.06-3.5-1.24-1.18-2.2-2.19-2.88-3.04-.52-.71-1.13-1.61-1.83-2.68-.7-1.08-1.02-2.14-.96-3.21,1.14-16.31,3.54-32.57,7.19-48.8,3.65-16.22,8.12-32.06,13.43-47.51.59-1.88,1.79-2.89,3.6-3.05.9-.08,1.67.08,2.31.48,2.74,1.88,5.17,3.71,7.3,5.49,1.8,1.51,3.45,3.03,4.94,4.56,1.49,1.54,2.13,2.77,1.91,3.7-.49,3.08-1.24,6.58-2.26,10.54-1.01,3.95-1.88,7.1-2.58,9.43-.58,2.02-1,3.69-1.26,5-.26,1.31-.51,2.42-.73,3.36-.07.91-.08,1.67-.03,2.27,4.77-9.51,9.17-18.07,13.19-25.69,1.83-3.34,3.62-6.6,5.39-9.79,1.77-3.18,3.45-6.05,5.04-8.61,1.59-2.56,2.99-4.73,4.2-6.5,1.21-1.77,2.16-2.91,2.88-3.44,1.29-.86,2.65-1.7,4.09-2.52,1.44-.8,2.99-1.28,4.65-1.43,2.55-.22,5.01.17,7.37,1.17,2.36,1,4.51,2.25,6.46,3.75,1.46,1.09,2.26,2.87,2.4,5.36.14,2.48-.06,5.34-.61,8.57-.55,3.23-1.28,6.63-2.17,10.19Z"/>
    <path class="cls-2" d="M872.85,490.09c-1.78,2.13-3.48,4.32-5.1,6.58-1.62,2.26-3.17,4.52-4.63,6.77-1.47,2.25-2.73,4.25-3.79,6.01,3.03.04,6.06,0,9.08-.12,3.02-.11,33.48-1.98,36.51-1.94,1.21.04,2.53.42,3.96,1.13,1.42.71,2.82,1.53,4.19,2.47,1.36.94,2.67,1.96,3.9,3.07,1.23,1.1,2.19,2.08,2.87,2.92.67.71,1.39,1.59,2.17,2.65.77,1.07,1.05,2.14.85,3.22-.05,1.22-.82,1.89-2.32,2.02l-.9.08c-14.24-.11-56.02,2.29-70.44,3.56-4.1,8.54-8.19,17.95-12.29,28.22-4.09,10.28-7.71,20.86-10.84,31.74-3.12,11.03-5.57,22-7.33,32.9-1.77,10.91-2.37,21.26-1.82,31.06-.01,3.33.27,6.56.85,9.69.21.74.39,1.48.54,2.23.14.75.32,1.48.54,2.22l.06.68c.38.87.72,1.75,1.03,2.63.31.89.64,1.76,1.03,2.64,1.31,1.1,2.47,2.24,3.48,3.45,1.02,1.19,1.81,2.45,2.38,3.76.36.72.5,1.39.4,2.01s-.51,1.1-1.23,1.47l-.68.06c-.9.08-1.91-.14-3.01-.64-1.11-.51-1.98-.89-2.6-1.13-5.07-2.59-9.46-5.98-13.16-10.21-3.7-4.22-6.4-9.06-8.09-14.51-1.35-5.03-2.21-10.1-2.59-15.22-.37-5.12-.41-10.34-.13-15.66,1.04-15.69,3.81-31.61,8.3-47.76,4.49-16.14,9.81-31.45,15.96-45.92-4.33.69-8.59,1.4-12.76,2.14-4.17.75-8.41,1.61-12.72,2.6-1.51.13-3.28-.21-5.32-1.01s-4.03-1.88-5.96-3.22c-1.94-1.35-3.66-2.87-5.17-4.55-1.51-1.68-2.48-3.26-2.91-4.74-.37-.73-.5-1.47-.42-2.24.08-.77.57-1.26,1.46-1.49,8.91-2,17.74-3.64,26.48-4.94,8.74-1.29,17.62-2.42,26.62-3.36l5.28-9.78c2.48-4.45,5.22-9.09,8.2-13.89,2.99-4.81,5.94-9.04,8.88-12.7,2.93-3.67,5.37-5.59,7.33-5.76,1.35-.12,2.93.24,4.75,1.06,1.81.83,3.57,1.84,5.27,3.06,1.7,1.21,3.25,2.52,4.66,3.91,1.41,1.39,2.46,2.58,3.15,3.58.02.15.15.44.42.87s.49.91.69,1.42c.19.51.31.99.35,1.44.04.45-.08.77-.37.94-1.57,1.04-3.26,2.56-5.05,4.53Z"/>
  </g>
  <g>
    <rect class="cls-1" x="524.84" y="446.55" width="17.44" height="17.42"/>
    <rect class="cls-1" x="545.33" y="426.41" width="17.39" height="17.42"/>
    <rect class="cls-1" x="545.33" y="504.9" width="17.39" height="17.42"/>
    <rect class="cls-1" x="565.64" y="406.63" width="17.42" height="17.42"/>
    <rect class="cls-1" x="565.64" y="467.64" width="17.42" height="17.42"/>
    <rect class="cls-1" x="504.44" y="386.27" width="17.32" height="17.4"/>
    <rect class="cls-1" x="545.55" y="386.27" width="17.32" height="17.4"/>
    <rect class="cls-1" x="524.84" y="366.2" width="17.44" height="17.42"/>
    <rect class="cls-1" x="668.15" y="366.2" width="17.42" height="17.42"/>
    <rect class="cls-1" x="545.33" y="346.12" width="17.39" height="17.41"/>
    <rect class="cls-1" x="565.77" y="346.12" width="17.43" height="17.41"/>
    <rect class="cls-1" x="647.65" y="346.12" width="17.41" height="17.41"/>
    <rect class="cls-1" x="545.33" y="326.03" width="17.39" height="17.43"/>
    <rect class="cls-1" x="565.77" y="366.18" width="17.43" height="17.43"/>
    <rect class="cls-1" x="586.26" y="326.03" width="17.42" height="17.43"/>
    <rect class="cls-1" x="586.26" y="346.07" width="17.42" height="17.43"/>
    <rect class="cls-1" x="586.26" y="386.33" width="17.42" height="17.43"/>
    <rect class="cls-1" x="606.69" y="326.03" width="17.49" height="17.43"/>
    <rect class="cls-1" x="647.65" y="326.03" width="17.41" height="17.43"/>
    <rect class="cls-1" x="586.26" y="305.93" width="17.42" height="17.42"/>
    <rect class="cls-1" x="627.16" y="346.12" width="17.43" height="17.42"/>
    <rect class="cls-1" x="504.34" y="484.19" width="17.43" height="17.42"/>
    <rect class="cls-1" x="668.15" y="305.93" width="17.42" height="17.42"/>
    <g>
      <path class="cls-2" d="M360,439.56c0,14.14-4.44,25.08-13.31,32.8-8.87,7.73-22.39,11.59-40.54,11.59h-68.8v-137.74h69.2c17.74,0,30.54,3.09,38.39,9.27,7.85,6.18,11.77,15.05,11.77,26.62,0,7.49-1.67,13.21-5.02,17.15-3.35,3.94-7.41,7.23-12.18,9.86,6.55,2.62,11.6,6.39,15.15,11.29,3.55,4.91,5.32,11.3,5.32,19.16ZM317.82,387.24c0-3.04-.89-5.62-2.66-7.74-1.78-2.12-5.05-3.18-9.83-3.18h-29.89v21.84h29.89c4.64,0,7.88-.99,9.73-2.98,1.84-1.99,2.76-4.63,2.76-7.94ZM321.1,440.27c0-4.06-1.16-7.28-3.48-9.64-2.32-2.36-5.87-3.54-10.65-3.54h-31.53v26.76h31.33c4.91,0,8.53-1.28,10.85-3.84,2.32-2.56,3.48-5.81,3.48-9.74Z"/>
      <path class="cls-2" d="M376.17,483.96v-137.74h40.54v137.74h-40.54Z"/>
      <path class="cls-2" d="M842.64,441.65c0,7.87-1.47,14.63-4.4,20.27-2.94,5.64-7.03,10.23-12.29,13.77-5.26,3.54-11.5,6.17-18.73,7.87-7.24,1.7-15.15,2.56-23.75,2.56-11.6,0-22.69-1.61-33.27-4.82-10.58-3.21-19.62-7.18-27.13-11.9l19.25-29.91c2.59,1.71,5.63,3.38,9.11,5.02,3.48,1.64,7.09,3.12,10.85,4.43,3.75,1.31,7.54,2.36,11.36,3.15,3.82.79,7.37,1.18,10.65,1.18,7.1,0,11.98-.66,14.64-1.97,2.66-1.31,3.99-3.61,3.99-6.89,0-1.31-.38-2.49-1.13-3.54-.75-1.05-2.05-2.07-3.89-3.05-1.84-.98-4.33-1.97-7.47-2.95-3.14-.98-7.1-2-11.87-3.05-8.6-1.97-16.11-4.06-22.52-6.3-6.42-2.23-11.74-5.02-15.97-8.36-4.23-3.35-7.41-7.38-9.52-12.1-2.12-4.72-3.17-10.56-3.17-17.51,0-6.43,1.33-12.33,3.99-17.71,2.66-5.38,6.45-9.97,11.36-13.77,4.91-3.8,10.85-6.76,17.81-8.86,6.96-2.1,14.74-3.15,23.34-3.15,12.29,0,22.96,1.38,32.04,4.13,9.08,2.75,17.44,6.69,25.08,11.81l-19.25,29.91c-6.42-4.2-12.83-7.41-19.25-9.64-6.42-2.23-13.31-3.35-20.68-3.35-6.01,0-9.97.79-11.88,2.36-1.91,1.57-2.87,3.61-2.87,6.1,0,1.31.38,2.46,1.13,3.44.75.98,2.01,1.9,3.79,2.75,1.77.86,4.16,1.71,7.17,2.56,3,.86,6.82,1.8,11.47,2.85,9.01,2.1,16.79,4.4,23.34,6.89,6.55,2.49,11.94,5.44,16.17,8.86,4.23,3.41,7.37,7.48,9.42,12.2,2.05,4.72,3.07,10.3,3.07,16.73Z"/>
      <rect class="cls-2" x="606.69" y="386.27" width="17.49" height="17.4"/>
      <rect class="cls-2" x="545.33" y="366.2" width="17.39" height="17.42"/>
      <rect class="cls-2" x="606.69" y="366.2" width="17.49" height="17.42"/>
      <path class="cls-2" d="M670.01,345.72v17.55h18.48v23.26h-18.48v38.09c0,8.53-1.74,15.22-5.22,20.07-3.48,4.86-9.11,7.28-16.89,7.28s-13.48-2.43-17.1-7.28c-3.62-4.85-5.43-11.54-5.43-20.07v-18h-40.43l-.11,18c0,10.89,1.57,20.2,4.71,27.94,3.14,7.74,7.47,14.07,13,18.99,5.53,4.92,12.11,8.5,19.76,10.73,7.64,2.23,15.97,3.35,24.98,3.35s17.37-1.12,25.08-3.35c7.71-2.23,14.4-5.81,20.07-10.73,5.66-4.92,10.1-11.25,13.31-18.99,3.21-7.74,4.81-17.05,4.81-27.94v-78.9h-40.54Z"/>
      <rect class="cls-2" x="606.69" y="346.12" width="17.49" height="17.41"/>
      <rect class="cls-2" x="524.84" y="346.28" width="17.44" height="17.43"/>
      <rect class="cls-2" x="586.26" y="366.29" width="17.42" height="17.43"/>
      <path class="cls-2" d="M562.81,406.63h-20.22v-20.35h-17.86v6.97c0,3.54.07,6.99.21,10.33.13,3.35.27,6.43.41,9.25.13,2.82.34,5.02.61,6.59-.82-1.44-2.12-3.54-3.89-6.3-1.64-2.54-2.1-3.62-4.08-6.49h-16.42v-21.24l-29.46-39.17h-35.01v137.74h38.08v-51.55c0-3.54-.07-6.99-.2-10.33-.14-3.35-.27-6.43-.41-9.25-.14-2.82-.34-5.02-.61-6.59.95,1.57,2.35,3.74,4.2,6.49,1.84,2.75,3.82,5.68,5.94,8.76,2.11,3.08,4.26,6.17,6.45,9.25,2.18,3.08,4.1,5.68,5.73,7.77l34.19,45.45h32.35v-37.41h-17.48,0v20.05h-23.57v-22.77h20.82v-.9h0v-18.88h20.22v-17.42Z"/>
    </g>
  </g>
</svg>